<svg width="319" height="87" viewBox="0 0 319 87" fill="none" xmlns="http://www.w3.org/2000/svg">
<g style="mix-blend-mode:multiply" filter="url(#filter0_d)">
<path d="M131.211 46V49H134.211V46H131.211ZM98.3281 41.1016L96.0833 43.0918L96.0891 43.0982L96.0948 43.1046L98.3281 41.1016ZM95.2109 22.6797L98.0322 23.6997L98.0347 23.6928L95.2109 22.6797ZM98.3281 17.3359L96.0846 15.3443L96.0833 15.3457L98.3281 17.3359ZM103.227 13.7266L104.478 16.4531L104.487 16.4488L104.496 16.4445L103.227 13.7266ZM131.211 12.3906H134.211V9.39062H131.211V12.3906ZM131.211 17.1953V20.1953H134.211V17.1953H131.211ZM105.102 18.1562L106.391 20.8648L106.398 20.8616L106.405 20.8583L105.102 18.1562ZM101.75 20.7344L99.4561 18.801L99.4535 18.804L101.75 20.7344ZM99.6406 24.5312L96.8039 23.5552L96.7992 23.5688L96.7946 23.5826L99.6406 24.5312ZM99.6406 33.8828L96.7916 34.8224L96.7976 34.8407L96.8039 34.8589L99.6406 33.8828ZM101.75 37.7031L99.4399 39.6172L99.4548 39.6351L99.4699 39.6528L101.75 37.7031ZM105.102 40.2578L103.812 42.9664L103.824 42.9723L105.102 40.2578ZM131.211 41.1953H134.211V38.1953H131.211V41.1953ZM131.211 43H109.578V49H131.211V43ZM109.578 43C107.634 43 105.95 42.6369 104.478 41.961L101.975 47.414C104.315 48.4881 106.866 49 109.578 49V43ZM104.478 41.961C102.934 41.2521 101.638 40.299 100.561 39.0985L96.0948 43.1046C97.7368 44.9354 99.707 46.3729 101.975 47.414L104.478 41.961ZM100.573 39.1113C99.5008 37.9021 98.6496 36.4587 98.0347 34.7447L92.3872 36.7709C93.241 39.1507 94.468 41.2698 96.0833 43.0918L100.573 39.1113ZM98.0347 34.7447C97.4249 33.0452 97.1094 31.2026 97.1094 29.1953H91.1094C91.1094 31.8443 91.5282 34.3767 92.3872 36.7709L98.0347 34.7447ZM97.1094 29.1953C97.1094 27.2059 97.4242 25.3814 98.0322 23.6997L92.3897 21.6597C91.5289 24.0404 91.1094 26.5597 91.1094 29.1953H97.1094ZM98.0347 23.6928C98.6496 21.9788 99.5008 20.5354 100.573 19.3262L96.0833 15.3457C94.468 17.1677 93.241 19.2868 92.3872 21.6666L98.0347 23.6928ZM100.572 19.3276C101.648 18.1151 102.94 17.1589 104.478 16.4531L101.975 11.0001C99.7002 12.0443 97.727 13.4943 96.0846 15.3443L100.572 19.3276ZM104.496 16.4445C105.964 15.7586 107.642 15.3906 109.578 15.3906V9.39062C106.858 9.39062 104.301 9.91323 101.957 11.0086L104.496 16.4445ZM109.578 15.3906H131.211V9.39062H109.578V15.3906ZM128.211 12.3906V17.1953H134.211V12.3906H128.211ZM131.211 14.1953H109.578V20.1953H131.211V14.1953ZM109.578 14.1953C107.527 14.1953 105.58 14.5945 103.798 15.4542L106.405 20.8583C107.279 20.4368 108.317 20.1953 109.578 20.1953V14.1953ZM103.812 15.4477C102.12 16.2535 100.658 17.3748 99.4561 18.801L104.044 22.6678C104.686 21.9065 105.459 21.309 106.391 20.8648L103.812 15.4477ZM99.4535 18.804C98.2893 20.189 97.4128 21.7853 96.8039 23.5552L102.477 25.5073C102.868 24.371 103.398 23.436 104.046 22.6647L99.4535 18.804ZM96.7946 23.5826C96.2003 25.3655 95.9141 27.2428 95.9141 29.1953H101.914C101.914 27.8353 102.112 26.6033 102.487 25.4799L96.7946 23.5826ZM95.9141 29.1953C95.9141 31.1481 96.2003 33.0297 96.7916 34.8224L102.49 32.9432C102.112 31.7985 101.914 30.555 101.914 29.1953H95.9141ZM96.8039 34.8589C97.4118 36.6258 98.2848 38.2231 99.4399 39.6172L104.06 35.7891C103.403 34.9957 102.869 34.0461 102.477 32.9067L96.8039 34.8589ZM99.4699 39.6528C100.672 41.0585 102.129 42.1652 103.812 42.9664L106.391 37.5492C105.449 37.1004 104.672 36.504 104.03 35.7535L99.4699 39.6528ZM103.824 42.9723C105.6 43.8081 107.537 44.1953 109.578 44.1953V38.1953C108.307 38.1953 107.259 37.9575 106.379 37.5434L103.824 42.9723ZM109.578 44.1953H131.211V38.1953H109.578V44.1953ZM128.211 41.1953V46H134.211V41.1953H128.211ZM172.508 41.1016L170.274 39.0985L170.269 39.1049L170.263 39.1113L172.508 41.1016ZM138.922 41.1016L136.677 43.0918L136.683 43.0982L136.689 43.1046L138.922 41.1016ZM135.805 22.6797L138.626 23.6997L138.628 23.6928L135.805 22.6797ZM138.922 17.3359L136.678 15.3443L136.677 15.3457L138.922 17.3359ZM143.82 13.7266L145.072 16.4531L145.081 16.4488L145.09 16.4445L143.82 13.7266ZM167.656 13.7266L166.378 16.4405L166.387 16.4448L166.396 16.4491L167.656 13.7266ZM172.508 17.3359L170.253 19.3147L170.264 19.3269L170.274 19.339L172.508 17.3359ZM175.648 22.6797L172.825 23.6928L172.827 23.6997L175.648 22.6797ZM169.109 20.7344L166.799 22.6484L166.814 22.6663L166.829 22.684L169.109 20.7344ZM165.781 18.1562L164.453 20.846L164.472 20.8555L164.491 20.8648L165.781 18.1562ZM145.695 18.1562L146.985 20.8648L146.992 20.8616L146.999 20.8583L145.695 18.1562ZM142.344 20.7344L140.05 18.801L140.047 18.804L142.344 20.7344ZM140.234 24.5312L137.398 23.5552L137.393 23.5688L137.388 23.5826L140.234 24.5312ZM140.234 33.8828L137.385 34.8224L137.391 34.8407L137.398 34.8589L140.234 33.8828ZM142.344 37.7031L140.034 39.6172L140.049 39.6351L140.064 39.6528L142.344 37.7031ZM145.695 40.2578L144.405 42.9664L144.418 42.9723L145.695 40.2578ZM165.781 40.2578L164.491 37.5492L164.479 37.5553L165.781 40.2578ZM169.109 37.7031L166.815 35.7697L166.813 35.7728L169.109 37.7031ZM171.219 33.8828L174.065 34.8315L174.068 34.8224L171.219 33.8828ZM173.75 29.1953C173.75 31.2026 173.434 33.0452 172.825 34.7447L178.472 36.7709C179.331 34.3767 179.75 31.8443 179.75 29.1953H173.75ZM172.825 34.7447C172.212 36.4517 171.358 37.8908 170.274 39.0985L174.741 43.1046C176.377 41.281 177.616 39.1577 178.472 36.7709L172.825 34.7447ZM170.263 39.1113C169.201 40.3087 167.923 41.2585 166.396 41.9649L168.916 47.4101C171.171 46.3665 173.127 44.9257 174.753 43.0918L170.263 39.1113ZM166.396 41.9649C164.942 42.6379 163.277 43 161.352 43V49C164.051 49 166.589 48.4871 168.916 47.4101L166.396 41.9649ZM161.352 43H150.172V49H161.352V43ZM150.172 43C148.228 43 146.544 42.6369 145.072 41.961L142.569 47.414C144.909 48.4881 147.46 49 150.172 49V43ZM145.072 41.961C143.527 41.2521 142.232 40.299 141.155 39.0985L136.689 43.1046C138.331 44.9354 140.301 46.3729 142.569 47.414L145.072 41.961ZM141.167 39.1113C140.095 37.9021 139.243 36.4587 138.628 34.7447L132.981 36.7709C133.835 39.1507 135.062 41.2698 136.677 43.0918L141.167 39.1113ZM138.628 34.7447C138.019 33.0452 137.703 31.2026 137.703 29.1953H131.703C131.703 31.8443 132.122 34.3767 132.981 36.7709L138.628 34.7447ZM137.703 29.1953C137.703 27.2059 138.018 25.3814 138.626 23.6997L132.983 21.6597C132.123 24.0404 131.703 26.5597 131.703 29.1953H137.703ZM138.628 23.6928C139.243 21.9788 140.095 20.5354 141.167 19.3262L136.677 15.3457C135.062 17.1677 133.835 19.2868 132.981 21.6666L138.628 23.6928ZM141.165 19.3276C142.242 18.1151 143.534 17.1589 145.072 16.4531L142.569 11.0001C140.294 12.0443 138.321 13.4943 136.678 15.3443L141.165 19.3276ZM145.09 16.4445C146.558 15.7586 148.235 15.3906 150.172 15.3906V9.39062C147.452 9.39062 144.895 9.91323 142.55 11.0086L145.09 16.4445ZM150.172 15.3906H161.352V9.39062H150.172V15.3906ZM161.352 15.3906C163.27 15.3906 164.928 15.7575 166.378 16.4405L168.935 11.0126C166.603 9.91436 164.059 9.39062 161.352 9.39062V15.3906ZM166.396 16.4491C167.916 17.1524 169.192 18.1053 170.253 19.3147L174.763 15.3572C173.137 13.5041 171.178 12.0507 168.916 11.004L166.396 16.4491ZM170.274 19.339C171.358 20.5467 172.212 21.9858 172.825 23.6928L178.472 21.6666C177.616 19.2798 176.377 17.1565 174.741 15.3329L170.274 19.339ZM172.827 23.6997C173.435 25.3814 173.75 27.2059 173.75 29.1953H179.75C179.75 26.5597 179.33 24.0404 178.47 21.6597L172.827 23.6997ZM174.945 29.1953C174.945 27.2428 174.659 25.3655 174.065 23.5826L168.373 25.4799C168.747 26.6033 168.945 27.8353 168.945 29.1953H174.945ZM174.065 23.5826C173.468 21.7919 172.582 20.1797 171.389 18.7847L166.829 22.684C167.48 23.4453 168.001 24.3643 168.373 25.4799L174.065 23.5826ZM171.419 18.8203C170.228 17.3827 168.768 16.2557 167.071 15.4477L164.491 20.8648C165.42 21.3068 166.178 21.8986 166.799 22.6484L171.419 18.8203ZM167.11 15.4665C165.344 14.594 163.402 14.1953 161.352 14.1953V20.1953C162.614 20.1953 163.625 20.4372 164.453 20.846L167.11 15.4665ZM161.352 14.1953H150.172V20.1953H161.352V14.1953ZM150.172 14.1953C148.12 14.1953 146.174 14.5945 144.392 15.4542L146.999 20.8583C147.873 20.4368 148.911 20.1953 150.172 20.1953V14.1953ZM144.406 15.4477C142.713 16.2535 141.252 17.3748 140.05 18.801L144.638 22.6678C145.279 21.9065 146.052 21.309 146.985 20.8648L144.406 15.4477ZM140.047 18.804C138.883 20.189 138.007 21.7853 137.398 23.5552L143.071 25.5073C143.462 24.371 143.992 23.436 144.64 22.6647L140.047 18.804ZM137.388 23.5826C136.794 25.3655 136.508 27.2428 136.508 29.1953H142.508C142.508 27.8353 142.706 26.6033 143.08 25.4799L137.388 23.5826ZM136.508 29.1953C136.508 31.1481 136.794 33.0297 137.385 34.8224L143.083 32.9432C142.706 31.7985 142.508 30.555 142.508 29.1953H136.508ZM137.398 34.8589C138.006 36.6258 138.879 38.2231 140.034 39.6172L144.654 35.7891C143.996 34.9957 143.463 34.0461 143.071 32.9067L137.398 34.8589ZM140.064 39.6528C141.266 41.0585 142.723 42.1652 144.406 42.9664L146.985 37.5492C146.043 37.1004 145.266 36.504 144.624 35.7535L140.064 39.6528ZM144.418 42.9723C146.194 43.8081 148.131 44.1953 150.172 44.1953V38.1953C148.9 38.1953 147.853 37.9575 146.973 37.5434L144.418 42.9723ZM150.172 44.1953H161.352V38.1953H150.172V44.1953ZM161.352 44.1953C163.391 44.1953 165.324 43.8086 167.084 42.9603L164.479 37.5553C163.645 37.957 162.625 38.1953 161.352 38.1953V44.1953ZM167.071 42.9664C168.758 42.163 170.215 41.0507 171.406 39.6335L166.813 35.7728C166.192 36.5118 165.429 37.1026 164.491 37.5492L167.071 42.9664ZM171.403 39.6365C172.587 38.2324 173.469 36.6191 174.065 34.8315L168.373 32.9341C168 34.0528 167.476 34.9864 166.815 35.7697L171.403 39.6365ZM174.068 34.8224C174.659 33.0297 174.945 31.1481 174.945 29.1953H168.945C168.945 30.555 168.747 31.7985 168.37 32.9432L174.068 34.8224ZM221.375 35.7578L218.558 34.7257L218.555 34.7352L218.551 34.7447L221.375 35.7578ZM213.336 44.6875L212.084 41.961L212.076 41.9649L213.336 44.6875ZM190.086 46H187.086V49H190.086V46ZM190.086 41.1953V38.1953H187.086V41.1953H190.086ZM211.484 40.2578L210.207 37.5433L210.195 37.5492L211.484 40.2578ZM214.836 37.7031L212.542 35.7697L212.539 35.7728L214.836 37.7031ZM216.945 33.8828L214.105 32.916L214.102 32.9251L214.099 32.9341L216.945 33.8828ZM216.945 24.5312L214.099 25.4799L214.104 25.4937L214.109 25.5073L216.945 24.5312ZM214.836 20.7344L212.526 22.6484L212.541 22.6663L212.556 22.684L214.836 20.7344ZM211.484 18.1562L210.168 20.8522L210.188 20.8616L210.207 20.8707L211.484 18.1562ZM187.695 17.1953V14.1953H184.695V17.1953H187.695ZM187.695 46V49H190.695V46H187.695ZM182.891 46H179.891V49H182.891V46ZM182.891 12.3906V9.39062H179.891V12.3906H182.891ZM213.336 13.7266L212.057 16.4405L212.071 16.4468L212.084 16.4531L213.336 13.7266ZM218.234 17.3359L215.991 19.3276L215.996 19.3333L216.001 19.339L218.234 17.3359ZM221.375 22.6797L218.551 23.6928L218.556 23.7058L218.561 23.7188L221.375 22.6797ZM219.5 29.1953C219.5 31.1954 219.179 33.0313 218.558 34.7257L224.192 36.7899C225.071 34.3906 225.5 31.8515 225.5 29.1953H219.5ZM218.551 34.7447C217.939 36.4517 217.084 37.8908 216.001 39.0985L220.468 43.1046C222.103 41.281 223.342 39.1577 224.199 36.7709L218.551 34.7447ZM216.001 39.0985C214.924 40.299 213.629 41.2521 212.084 41.961L214.587 47.414C216.855 46.3729 218.826 44.9354 220.468 43.1046L216.001 39.0985ZM212.076 41.9649C210.622 42.6379 208.957 43 207.031 43V49C209.731 49 212.269 48.4871 214.596 47.4101L212.076 41.9649ZM207.031 43H190.086V49H207.031V43ZM193.086 46V41.1953H187.086V46H193.086ZM190.086 44.1953H207.031V38.1953H190.086V44.1953ZM207.031 44.1953C209.071 44.1953 211.006 43.8083 212.774 42.9664L210.195 37.5492C209.338 37.9573 208.304 38.1953 207.031 38.1953V44.1953ZM212.762 42.9723C214.465 42.1706 215.935 41.0576 217.132 39.6335L212.539 35.7728C211.924 36.5049 211.16 37.095 210.207 37.5434L212.762 42.9723ZM217.13 39.6365C218.313 38.2324 219.195 36.6191 219.791 34.8315L214.099 32.9341C213.726 34.0528 213.202 34.9864 212.542 35.7697L217.13 39.6365ZM219.785 34.8496C220.398 33.0491 220.695 31.1581 220.695 29.1953H214.695C214.695 30.545 214.492 31.779 214.105 32.916L219.785 34.8496ZM220.695 29.1953C220.695 27.2328 220.398 25.3459 219.782 23.5552L214.109 25.5073C214.492 26.6228 214.695 27.8454 214.695 29.1953H220.695ZM219.791 23.5826C219.194 21.7919 218.309 20.1797 217.116 18.7847L212.556 22.684C213.207 23.4453 213.727 24.3643 214.099 25.4799L219.791 23.5826ZM217.146 18.8203C215.949 17.3757 214.475 16.248 212.762 15.4418L210.207 20.8707C211.15 21.3145 211.91 21.9056 212.526 22.6484L217.146 18.8203ZM212.8 15.4603C211.026 14.5943 209.082 14.1953 207.031 14.1953V20.1953C208.293 20.1953 209.318 20.437 210.168 20.8522L212.8 15.4603ZM207.031 14.1953H187.695V20.1953H207.031V14.1953ZM184.695 17.1953V46H190.695V17.1953H184.695ZM187.695 43H182.891V49H187.695V43ZM185.891 46V12.3906H179.891V46H185.891ZM182.891 15.3906H207.031V9.39062H182.891V15.3906ZM207.031 15.3906C208.949 15.3906 210.608 15.7575 212.057 16.4405L214.614 11.0126C212.283 9.91436 209.738 9.39062 207.031 9.39062V15.3906ZM212.084 16.4531C213.622 17.1589 214.914 18.1151 215.991 19.3276L220.478 15.3443C218.836 13.4943 216.862 12.0443 214.587 11.0001L212.084 16.4531ZM216.001 19.339C217.084 20.5467 217.939 21.9858 218.551 23.6928L224.199 21.6666C223.342 19.2798 222.103 17.1565 220.468 15.3329L216.001 19.339ZM218.561 23.7188C219.18 25.3954 219.5 27.2132 219.5 29.1953H225.5C225.5 26.5525 225.07 24.0265 224.189 21.6406L218.561 23.7188ZM263.398 46V49H266.398V46H263.398ZM228.641 46H225.641V49H228.641V46ZM228.641 12.3906V9.39062H225.641V12.3906H228.641ZM263.398 12.3906H266.398V9.39062H263.398V12.3906ZM263.398 17.1953V20.1953H266.398V17.1953H263.398ZM233.445 17.1953V14.1953H230.445V17.1953H233.445ZM233.445 41.1953H230.445V44.1953H233.445V41.1953ZM263.398 41.1953H266.398V38.1953H263.398V41.1953ZM259.32 31.6094V34.6094H262.32V31.6094H259.32ZM235.836 31.6094H232.836V34.6094H235.836V31.6094ZM235.836 26.8047V23.8047H232.836V26.8047H235.836ZM259.32 26.8047H262.32V23.8047H259.32V26.8047ZM263.398 43H228.641V49H263.398V43ZM231.641 46V12.3906H225.641V46H231.641ZM228.641 15.3906H263.398V9.39062H228.641V15.3906ZM260.398 12.3906V17.1953H266.398V12.3906H260.398ZM263.398 14.1953H233.445V20.1953H263.398V14.1953ZM230.445 17.1953V41.1953H236.445V17.1953H230.445ZM233.445 44.1953H263.398V38.1953H233.445V44.1953ZM260.398 41.1953V46H266.398V41.1953H260.398ZM259.32 28.6094H235.836V34.6094H259.32V28.6094ZM238.836 31.6094V26.8047H232.836V31.6094H238.836ZM235.836 29.8047H259.32V23.8047H235.836V29.8047ZM256.32 26.8047V31.6094H262.32V26.8047H256.32ZM308.445 46V49H315.7L310.564 43.8762L308.445 46ZM301.977 46L299.848 48.1141L300.728 49H301.977V46ZM284.82 28.7266L286.949 26.6125L285.145 24.7959L283.067 26.2923L284.82 28.7266ZM274.18 36.3906L272.426 33.9563L271.18 34.8543V36.3906H274.18ZM274.18 46V49H277.18V46H274.18ZM269.375 46H266.375V49H269.375V46ZM269.375 12.3906V9.39062H266.375V12.3906H269.375ZM274.18 12.3906H277.18V9.39062H274.18V12.3906ZM274.18 31.1172H271.18V36.9305L275.918 33.5624L274.18 31.1172ZM300.523 12.3906V9.39062H299.566L298.785 9.94546L300.523 12.3906ZM307.531 12.3906L309.281 14.8272L316.85 9.39062H307.531V12.3906ZM288.477 26.0781L286.726 23.6416L283.854 25.7045L286.358 28.2019L288.477 26.0781ZM308.445 43H301.977V49H308.445V43ZM304.105 43.8859L286.949 26.6125L282.692 30.8407L299.848 48.1141L304.105 43.8859ZM283.067 26.2923L272.426 33.9563L275.933 38.8249L286.574 31.1609L283.067 26.2923ZM271.18 36.3906V46H277.18V36.3906H271.18ZM274.18 43H269.375V49H274.18V43ZM272.375 46V12.3906H266.375V46H272.375ZM269.375 15.3906H274.18V9.39062H269.375V15.3906ZM271.18 12.3906V31.1172H277.18V12.3906H271.18ZM275.918 33.5624L302.262 14.8358L298.785 9.94546L272.442 28.672L275.918 33.5624ZM300.523 15.3906H307.531V9.39062H300.523V15.3906ZM305.781 9.95409L286.726 23.6416L290.227 28.5147L309.281 14.8272L305.781 9.95409ZM286.358 28.2019L306.326 48.1238L310.564 43.8762L290.595 23.9543L286.358 28.2019Z" fill="url(#paint0_radial)"/>
</g>
<g filter="url(#filter1_d)">
<path d="M102.647 77V77.7H103.347V77H102.647ZM100.345 77H99.6452V77.7H100.345V77ZM100.345 66.623H101.045V65.923H100.345V66.623ZM94.2583 66.623H93.5583V67.323H94.2583V66.623ZM94.2583 64.3545V63.6545H93.5583V64.3545H94.2583ZM108.723 64.3545H109.423V63.6545H108.723V64.3545ZM108.723 66.623V67.323H109.423V66.623H108.723ZM102.647 66.623V65.923H101.947V66.623H102.647ZM102.647 76.3H100.345V77.7H102.647V76.3ZM101.045 77V66.623H99.6452V77H101.045ZM100.345 65.923H94.2583V67.323H100.345V65.923ZM94.9583 66.623V64.3545H93.5583V66.623H94.9583ZM94.2583 65.0545H108.723V63.6545H94.2583V65.0545ZM108.023 64.3545V66.623H109.423V64.3545H108.023ZM108.723 65.923H102.647V67.323H108.723V65.923ZM101.947 66.623V77H103.347V66.623H101.947ZM127.059 77V77.7H127.759V77H127.059ZM113.852 77H113.152V77.7H113.852V77ZM113.852 64.3096V63.6096H113.152V64.3096H113.852ZM127.059 64.3096H127.759V63.6096H127.059V64.3096ZM127.059 66.623V67.323H127.759V66.623H127.059ZM116.177 66.623V65.923H115.477V66.623H116.177ZM116.177 74.6753H115.477V75.3753H116.177V74.6753ZM127.059 74.6753H127.759V73.9753H127.059V74.6753ZM125.588 71.7554V72.4554H126.288V71.7554H125.588ZM117.266 71.7554H116.566V72.4554H117.266V71.7554ZM117.266 69.4307V68.7307H116.566V69.4307H117.266ZM125.588 69.4307H126.288V68.7307H125.588V69.4307ZM127.059 76.3H113.852V77.7H127.059V76.3ZM114.552 77V64.3096H113.152V77H114.552ZM113.852 65.0096H127.059V63.6096H113.852V65.0096ZM126.359 64.3096V66.623H127.759V64.3096H126.359ZM127.059 65.923H116.177V67.323H127.059V65.923ZM115.477 66.623V74.6753H116.877V66.623H115.477ZM116.177 75.3753H127.059V73.9753H116.177V75.3753ZM126.359 74.6753V77H127.759V74.6753H126.359ZM125.588 71.0554H117.266V72.4554H125.588V71.0554ZM117.966 71.7554V69.4307H116.566V71.7554H117.966ZM117.266 70.1307H125.588V68.7307H117.266V70.1307ZM124.888 69.4307V71.7554H126.288V69.4307H124.888ZM146.047 77V77.7H146.747V77H146.047ZM133.592 75.1582L133.071 75.6254L133.074 75.6287L133.592 75.1582ZM132.391 73.1367L131.731 73.3714L131.734 73.379L132.391 73.1367ZM132.391 68.1616L131.734 67.9193L131.733 67.9229L132.391 68.1616ZM146.047 64.3096H146.747V63.6096H146.047V64.3096ZM146.047 66.623V67.323H146.747V66.623H146.047ZM136.377 66.9375L136.081 66.3032L136.077 66.3051L136.377 66.9375ZM134.547 72.2271L133.883 72.4484L133.884 72.4515L134.547 72.2271ZM135.254 73.5073L134.718 73.9566L134.722 73.962L135.254 73.5073ZM136.377 74.3608L136.077 74.9933L136.081 74.9952L136.377 74.3608ZM146.047 74.6753H146.747V73.9753H146.047V74.6753ZM146.047 76.3H137.882V77.7H146.047V76.3ZM137.882 76.3C137.079 76.3 136.371 76.152 135.746 75.8684L135.167 77.1433C135.995 77.5186 136.903 77.7 137.882 77.7V76.3ZM135.746 75.8684C135.103 75.5769 134.561 75.1833 134.111 74.6877L133.074 75.6287C133.657 76.2711 134.358 76.776 135.167 77.1433L135.746 75.8684ZM134.114 74.6911C133.66 74.1843 133.303 73.5879 133.047 72.8944L131.734 73.379C132.047 74.2278 132.492 74.9791 133.071 75.6254L134.114 74.6911ZM133.05 72.9021C132.802 72.2044 132.675 71.4496 132.675 70.6323H131.275C131.275 71.597 131.425 72.5117 131.731 73.3714L133.05 72.9021ZM132.675 70.6323C132.675 69.8231 132.802 69.081 133.049 68.4003L131.733 67.9229C131.426 68.7695 131.275 69.6746 131.275 70.6323H132.675ZM133.047 68.4039C133.303 67.7111 133.658 67.1199 134.111 66.6219L133.074 65.6808C132.493 66.3209 132.047 67.0698 131.734 67.9193L133.047 68.4039ZM134.111 66.6219C134.561 66.1263 135.103 65.7327 135.746 65.4412L135.167 64.1662C134.358 64.5336 133.657 65.0385 133.074 65.6808L134.111 66.6219ZM135.746 65.4412C136.371 65.1576 137.079 65.0096 137.882 65.0096V63.6096C136.903 63.6096 135.995 63.791 135.167 64.1662L135.746 65.4412ZM137.882 65.0096H146.047V63.6096H137.882V65.0096ZM145.347 64.3096V66.623H146.747V64.3096H145.347ZM146.047 65.923H137.882V67.323H146.047V65.923ZM137.882 65.923C137.238 65.923 136.634 66.0454 136.081 66.3032L136.674 67.5718C137.02 67.4103 137.419 67.323 137.882 67.323V65.923ZM136.077 66.3051C135.55 66.5555 135.095 66.8995 134.722 67.3364L135.787 68.2457C136.027 67.9638 136.322 67.7388 136.678 67.5699L136.077 66.3051ZM134.722 67.3364C134.353 67.7692 134.075 68.272 133.884 68.8356L135.21 69.2845C135.349 68.8748 135.542 68.5316 135.787 68.2457L134.722 67.3364ZM133.884 68.8356C133.693 69.401 133.6 70.0016 133.6 70.6323H135C135 70.1401 135.072 69.6924 135.21 69.2845L133.884 68.8356ZM133.6 70.6323C133.6 71.2696 133.692 71.8766 133.883 72.4484L135.211 72.0057C135.072 71.5892 135 71.133 135 70.6323H133.6ZM133.884 72.4515C134.074 73.0141 134.351 73.5184 134.718 73.9565L135.791 73.0581C135.544 72.7625 135.349 72.4133 135.21 72.0026L133.884 72.4515ZM134.722 73.962C135.095 74.3989 135.55 74.7428 136.077 74.9932L136.678 73.7284C136.322 73.5596 136.027 73.3345 135.787 73.0527L134.722 73.962ZM136.081 74.9952C136.634 75.2529 137.238 75.3753 137.882 75.3753V73.9753C137.419 73.9753 137.02 73.888 136.674 73.7265L136.081 74.9952ZM137.882 75.3753H146.047V73.9753H137.882V75.3753ZM145.347 74.6753V77H146.747V74.6753H145.347ZM165.124 77V77.7H165.824V77H165.124ZM162.822 77H162.122V77.7H162.822V77ZM162.822 71.8452H163.522V71.1452H162.822V71.8452ZM155.219 71.8452H154.519V72.5452H155.219V71.8452ZM155.219 69.543V68.843H154.519V69.543H155.219ZM162.822 69.543V70.243H163.522V69.543H162.822ZM162.822 64.3545V63.6545H162.122V64.3545H162.822ZM165.124 64.3545H165.824V63.6545H165.124V64.3545ZM154.13 77V77.7H154.83V77H154.13ZM151.827 77H151.127V77.7H151.827V77ZM151.827 64.3545V63.6545H151.127V64.3545H151.827ZM154.13 64.3545H154.83V63.6545H154.13V64.3545ZM165.124 76.3H162.822V77.7H165.124V76.3ZM163.522 77V71.8452H162.122V77H163.522ZM162.822 71.1452H155.219V72.5452H162.822V71.1452ZM155.919 71.8452V69.543H154.519V71.8452H155.919ZM155.219 70.243H162.822V68.843H155.219V70.243ZM163.522 69.543V64.3545H162.122V69.543H163.522ZM162.822 65.0545H165.124V63.6545H162.822V65.0545ZM164.424 64.3545V77H165.824V64.3545H164.424ZM154.13 76.3H151.827V77.7H154.13V76.3ZM152.527 77V64.3545H151.127V77H152.527ZM151.827 65.0545H154.13V63.6545H151.827V65.0545ZM153.43 64.3545V77H154.83V64.3545H153.43ZM183.292 77H182.592V77.7H183.292V77ZM182.865 74.563L182.204 74.7937L182.207 74.8012L182.865 74.563ZM181.731 72.3281L181.15 72.7179L181.154 72.725L181.731 72.3281ZM180.08 70.3628L179.591 70.8638L179.594 70.8667L180.08 70.3628ZM178.115 68.7456L177.715 69.3203L177.719 69.3232L178.115 68.7456ZM176.004 67.5439L175.709 68.1792L175.717 68.1828L176.004 67.5439ZM173.971 66.814L174.137 66.1339L173.271 65.9225V66.814H173.971ZM173.971 77V77.7H174.671V77H173.971ZM171.669 77H170.969V77.7H171.669V77ZM171.669 64.3545V63.6545H170.969V64.3545H171.669ZM172.915 64.3545H173.615V63.6545H172.915V64.3545ZM172.915 64.377H172.215V65.0398L172.877 65.0759L172.915 64.377ZM175.543 64.9272L175.314 65.5886L175.32 65.5908L175.543 64.9272ZM178.328 66.2188L177.971 66.8207L177.977 66.8241L178.328 66.2188ZM181.001 68.1504L180.539 68.6766L180.544 68.6809L181.001 68.1504ZM183.292 70.6099L182.73 71.0269L183.992 72.7288V70.6099H183.292ZM183.292 64.3545V63.6545H182.592V64.3545H183.292ZM185.583 64.3545H186.283V63.6545H185.583V64.3545ZM185.583 77V77.7H186.283V77H185.583ZM183.992 77C183.992 76.0805 183.836 75.1875 183.524 74.3248L182.207 74.8012C182.464 75.5107 182.592 76.2424 182.592 77H183.992ZM183.526 74.3323C183.229 73.4795 182.822 72.6787 182.308 71.9313L181.154 72.725C181.598 73.3702 181.948 74.0593 182.204 74.7937L183.526 74.3323ZM182.313 71.9384C181.812 71.192 181.23 70.4988 180.566 69.8589L179.594 70.8667C180.188 71.4397 180.706 72.0567 181.15 72.7178L182.313 71.9384ZM180.569 69.8618C179.92 69.2283 179.234 68.6634 178.51 68.168L177.719 69.3232C178.374 69.7712 178.998 70.2844 179.591 70.8638L180.569 69.8618ZM178.515 68.171C177.792 67.6685 177.051 67.246 176.29 66.9051L175.717 68.1828C176.394 68.4858 177.06 68.8644 177.715 69.3202L178.515 68.171ZM176.298 66.9088C175.553 66.5636 174.832 66.3037 174.137 66.1339L173.805 67.494C174.397 67.6387 175.032 67.8654 175.709 68.1791L176.298 66.9088ZM173.271 66.814V77H174.671V66.814H173.271ZM173.971 76.3H171.669V77.7H173.971V76.3ZM172.369 77V64.3545H170.969V77H172.369ZM171.669 65.0545H172.915V63.6545H171.669V65.0545ZM172.215 64.3545V64.377H173.615V64.3545H172.215ZM172.877 65.0759C173.624 65.1167 174.436 65.2841 175.314 65.5886L175.772 64.2659C174.794 63.9265 173.853 63.7271 172.953 63.678L172.877 65.0759ZM175.32 65.5908C176.205 65.8883 177.089 66.2973 177.971 66.8207L178.686 65.6168C177.726 65.0471 176.752 64.5951 175.766 64.2637L175.32 65.5908ZM177.977 66.8241C178.864 67.3392 179.718 67.9561 180.539 68.6766L181.463 67.6242C180.577 66.8473 179.649 66.1765 178.68 65.6134L177.977 66.8241ZM180.544 68.6809C181.367 69.3888 182.095 70.1707 182.73 71.0269L183.854 70.1929C183.157 69.2522 182.357 68.3944 181.458 67.6199L180.544 68.6809ZM183.992 70.6099V64.3545H182.592V70.6099H183.992ZM183.292 65.0545H185.583V63.6545H183.292V65.0545ZM184.883 64.3545V77H186.283V64.3545H184.883ZM185.583 76.3H183.292V77.7H185.583V76.3ZM206.615 73.1255L207.273 73.3642L207.273 73.3621L206.615 73.1255ZM205.424 75.1357L204.903 74.6686L204.9 74.6724L205.424 75.1357ZM203.582 76.5059L203.877 77.141L203.88 77.1397L203.582 76.5059ZM194.811 76.5059L194.514 77.1397L194.52 77.1422L194.811 76.5059ZM192.958 75.1357L192.434 75.5991L192.437 75.6029L192.958 75.1357ZM191.779 73.1255L191.12 73.3621L191.121 73.3642L191.779 73.1255ZM192.958 66.2075L192.437 65.7404L192.437 65.7408L192.958 66.2075ZM203.582 64.8486L203.288 65.4838L203.291 65.485L203.582 64.8486ZM205.424 66.2075L204.899 66.6709L204.906 66.6781L205.424 66.2075ZM204.481 69.0938L203.814 69.306L203.818 69.3182L204.481 69.0938ZM203.785 67.8135L203.242 68.2561L203.247 68.2622L203.252 68.2681L203.785 67.8135ZM202.684 66.9487L202.371 67.5749L202.38 67.5791L202.684 66.9487ZM195.71 66.9487L196.014 67.5791L196.019 67.5769L195.71 66.9487ZM194.598 67.8135L194.061 67.3643L194.06 67.3653L194.598 67.8135ZM193.902 69.0938L193.238 68.8724L193.236 68.8785L193.902 69.0938ZM193.902 72.2271L193.235 72.4393L193.239 72.4515L193.902 72.2271ZM194.598 73.5073L194.056 73.95L194.061 73.9565L194.598 73.5073ZM195.71 74.3833L195.397 75.0094L195.403 75.0126L195.41 75.0157L195.71 74.3833ZM202.684 74.3833L202.988 75.0137L202.997 75.0094L202.684 74.3833ZM203.785 73.5073L203.248 73.0581L203.242 73.0647L203.785 73.5073ZM204.481 72.2271L203.817 72.0057L203.815 72.0118L204.481 72.2271ZM206.33 70.6548C206.33 71.4557 206.204 72.1987 205.956 72.8888L207.273 73.3621C207.58 72.51 207.73 71.6058 207.73 70.6548H206.33ZM205.957 72.8868C205.709 73.5705 205.357 74.1621 204.903 74.6686L205.946 75.6029C206.525 74.9564 206.967 74.2078 207.273 73.3642L205.957 72.8868ZM204.9 74.6724C204.456 75.1748 203.92 75.5744 203.285 75.872L203.88 77.1397C204.682 76.7634 205.374 76.2497 205.949 75.5991L204.9 74.6724ZM203.288 75.8707C202.679 76.1526 201.988 76.3 201.202 76.3V77.7C202.167 77.7 203.063 77.5179 203.877 77.141L203.288 75.8707ZM201.202 76.3H197.204V77.7H201.202V76.3ZM197.204 76.3C196.417 76.3 195.721 76.1527 195.103 75.8695L194.52 77.1422C195.339 77.5179 196.238 77.7 197.204 77.7V76.3ZM195.109 75.872C194.473 75.574 193.932 75.1732 193.48 74.6686L192.437 75.6029C193.018 76.2513 193.713 76.7639 194.514 77.1397L195.109 75.872ZM193.483 74.6724C193.035 74.1654 192.686 73.5726 192.437 72.8868L191.121 73.3642C191.426 74.2058 191.863 74.9531 192.434 75.5991L193.483 74.6724ZM192.438 72.8888C192.19 72.1987 192.064 71.4557 192.064 70.6548H190.664C190.664 71.6058 190.814 72.51 191.12 73.3621L192.438 72.8888ZM192.064 70.6548C192.064 69.862 192.19 69.1273 192.437 68.4452L191.121 67.9678C190.815 68.8132 190.664 69.7105 190.664 70.6548H192.064ZM192.437 68.4452C192.686 67.7602 193.034 67.1725 193.48 66.6743L192.437 65.7408C191.864 66.3806 191.427 67.1256 191.121 67.9678L192.437 68.4452ZM193.48 66.6747C193.931 66.1713 194.47 65.7752 195.103 65.485L194.52 64.2123C193.716 64.5809 193.019 65.0908 192.437 65.7404L193.48 66.6747ZM195.103 65.485C195.721 65.2018 196.417 65.0545 197.204 65.0545V63.6545C196.238 63.6545 195.339 63.8366 194.52 64.2123L195.103 65.485ZM197.204 65.0545H201.202V63.6545H197.204V65.0545ZM201.202 65.0545C201.988 65.0545 202.679 65.2019 203.288 65.4838L203.877 64.2135C203.063 63.8365 202.167 63.6545 201.202 63.6545V65.0545ZM203.291 65.485C203.923 65.7748 204.457 66.1698 204.9 66.6709L205.949 65.7442C205.373 65.0923 204.679 64.5813 203.874 64.2123L203.291 65.485ZM204.906 66.6781C205.358 67.1758 205.709 67.7623 205.957 68.4452L207.273 67.9678C206.966 67.1235 206.524 66.3772 205.942 65.737L204.906 66.6781ZM205.957 68.4452C206.204 69.1273 206.33 69.862 206.33 70.6548H207.73C207.73 69.7105 207.579 68.8132 207.273 67.9678L205.957 68.4452ZM205.428 70.6548C205.428 70.0304 205.335 69.4337 205.144 68.8693L203.818 69.3182C203.956 69.7271 204.028 70.1711 204.028 70.6548H205.428ZM205.148 68.8815C204.965 68.3071 204.69 67.7958 204.317 67.3588L203.252 68.2681C203.493 68.5499 203.682 68.8921 203.814 69.306L205.148 68.8815ZM204.327 67.3708C203.961 66.9233 203.513 66.5716 202.988 66.3183L202.38 67.5791C202.724 67.7451 203.009 67.97 203.242 68.2561L204.327 67.3708ZM202.997 66.3226C202.453 66.0505 201.849 65.923 201.202 65.923V67.323C201.662 67.323 202.047 67.4128 202.371 67.5748L202.997 66.3226ZM201.202 65.923H197.204V67.323H201.202V65.923ZM197.204 65.923C196.556 65.923 195.95 66.0505 195.401 66.3205L196.019 67.5769C196.353 67.4127 196.743 67.323 197.204 67.323V65.923ZM195.406 66.3183C194.883 66.5708 194.432 66.9206 194.061 67.3643L195.135 68.2627C195.378 67.9727 195.669 67.7459 196.014 67.5791L195.406 66.3183ZM194.06 67.3653C193.699 67.799 193.427 68.3048 193.238 68.8724L194.566 69.3151C194.706 68.8944 194.898 68.5467 195.136 68.2616L194.06 67.3653ZM193.236 68.8785C193.054 69.4403 192.966 70.0338 192.966 70.6548H194.366C194.366 70.1677 194.435 69.7205 194.568 69.309L193.236 68.8785ZM192.966 70.6548C192.966 71.2759 193.054 71.872 193.235 72.4393L194.569 72.0148C194.435 71.5938 194.366 71.1417 194.366 70.6548H192.966ZM193.239 72.4515C193.428 73.0108 193.699 73.5129 194.056 73.95L195.14 73.0647C194.898 72.768 194.705 72.4167 194.565 72.0026L193.239 72.4515ZM194.061 73.9565C194.431 74.3982 194.878 74.75 195.397 75.0094L196.023 73.7572C195.673 73.5824 195.379 73.3502 195.135 73.0581L194.061 73.9565ZM195.41 75.0157C195.957 75.2754 196.56 75.3978 197.204 75.3978V73.9978C196.739 73.9978 196.346 73.9104 196.01 73.7509L195.41 75.0157ZM197.204 75.3978H201.202V73.9978H197.204V75.3978ZM201.202 75.3978C201.845 75.3978 202.446 75.2755 202.988 75.0137L202.38 73.7529C202.054 73.9104 201.666 73.9978 201.202 73.9978V75.3978ZM202.997 75.0094C203.517 74.7492 203.963 74.3955 204.327 73.95L203.242 73.0647C203.007 73.3529 202.719 73.5832 202.371 73.7572L202.997 75.0094ZM204.321 73.9565C204.69 73.516 204.964 73.0085 205.147 72.4423L203.815 72.0118C203.683 72.4189 203.493 72.7649 203.248 73.0581L204.321 73.9565ZM205.145 72.4484C205.335 71.8785 205.428 71.2793 205.428 70.6548H204.028C204.028 71.1384 203.956 71.5873 203.817 72.0057L205.145 72.4484ZM224.895 77V77.7H225.595V77H224.895ZM212.788 77H212.088V77.7H212.788V77ZM212.788 64.3545V63.6545H212.088V64.3545H212.788ZM215.091 64.3545H215.791V63.6545H215.091V64.3545ZM215.091 74.6978H214.391V75.3978H215.091V74.6978ZM224.895 74.6978H225.595V73.9978H224.895V74.6978ZM224.895 76.3H212.788V77.7H224.895V76.3ZM213.488 77V64.3545H212.088V77H213.488ZM212.788 65.0545H215.091V63.6545H212.788V65.0545ZM214.391 64.3545V74.6978H215.791V64.3545H214.391ZM215.091 75.3978H224.895V73.9978H215.091V75.3978ZM224.195 74.6978V77H225.595V74.6978H224.195ZM244.455 73.1255L245.113 73.3642L245.114 73.3621L244.455 73.1255ZM243.265 75.1357L242.743 74.6686L242.74 74.6724L243.265 75.1357ZM241.423 76.5059L241.717 77.141L241.72 77.1397L241.423 76.5059ZM232.652 76.5059L232.355 77.1397L232.36 77.1422L232.652 76.5059ZM230.799 75.1357L230.274 75.5991L230.277 75.6029L230.799 75.1357ZM229.62 73.1255L228.961 73.3621L228.962 73.3642L229.62 73.1255ZM230.799 66.2075L230.277 65.7404L230.277 65.7408L230.799 66.2075ZM241.423 64.8486L241.129 65.4838L241.131 65.485L241.423 64.8486ZM243.265 66.2075L242.74 66.6709L242.746 66.6781L243.265 66.2075ZM242.321 69.0938L241.654 69.306L241.658 69.3182L242.321 69.0938ZM241.625 67.8135L241.083 68.2561L241.088 68.2622L241.093 68.2681L241.625 67.8135ZM240.524 66.9487L240.211 67.5749L240.22 67.5791L240.524 66.9487ZM233.55 66.9487L233.855 67.5791L233.859 67.5769L233.55 66.9487ZM232.438 67.8135L231.902 67.3643L231.901 67.3653L232.438 67.8135ZM231.742 69.0938L231.078 68.8724L231.076 68.8785L231.742 69.0938ZM231.742 72.2271L231.075 72.4393L231.079 72.4515L231.742 72.2271ZM232.438 73.5073L231.896 73.95L231.902 73.9565L232.438 73.5073ZM233.55 74.3833L233.237 75.0094L233.244 75.0126L233.25 75.0157L233.55 74.3833ZM240.524 74.3833L240.829 75.0137L240.837 75.0094L240.524 74.3833ZM241.625 73.5073L241.088 73.0581L241.083 73.0647L241.625 73.5073ZM242.321 72.2271L241.657 72.0057L241.655 72.0118L242.321 72.2271ZM244.171 70.6548C244.171 71.4557 244.044 72.1987 243.796 72.8888L245.114 73.3621C245.42 72.51 245.571 71.6058 245.571 70.6548H244.171ZM243.797 72.8868C243.549 73.5705 243.197 74.1621 242.743 74.6686L243.786 75.6029C244.365 74.9564 244.807 74.2078 245.113 73.3642L243.797 72.8868ZM242.74 74.6724C242.296 75.1748 241.761 75.5744 241.126 75.872L241.72 77.1397C242.523 76.7634 243.215 76.2497 243.789 75.5991L242.74 74.6724ZM241.129 75.8707C240.52 76.1526 239.828 76.3 239.042 76.3V77.7C240.008 77.7 240.903 77.5179 241.717 77.141L241.129 75.8707ZM239.042 76.3H235.044V77.7H239.042V76.3ZM235.044 76.3C234.258 76.3 233.561 76.1527 232.943 75.8695L232.36 77.1422C233.18 77.5179 234.078 77.7 235.044 77.7V76.3ZM232.949 75.872C232.313 75.574 231.772 75.1732 231.32 74.6686L230.277 75.6029C230.858 76.2513 231.553 76.7639 232.355 77.1397L232.949 75.872ZM231.323 74.6724C230.876 74.1654 230.526 73.5726 230.278 72.8868L228.962 73.3642C229.267 74.2058 229.704 74.9531 230.274 75.5991L231.323 74.6724ZM230.278 72.8888C230.03 72.1987 229.904 71.4557 229.904 70.6548H228.504C228.504 71.6058 228.655 72.51 228.961 73.3621L230.278 72.8888ZM229.904 70.6548C229.904 69.862 230.03 69.1273 230.278 68.4452L228.962 67.9678C228.655 68.8132 228.504 69.7105 228.504 70.6548H229.904ZM230.278 68.4452C230.526 67.7602 230.875 67.1725 231.32 66.6743L230.277 65.7408C229.705 66.3806 229.267 67.1256 228.962 67.9678L230.278 68.4452ZM231.32 66.6747C231.771 66.1713 232.31 65.7752 232.943 65.485L232.36 64.2123C231.556 64.5809 230.86 65.0908 230.277 65.7404L231.32 66.6747ZM232.943 65.485C233.561 65.2018 234.258 65.0545 235.044 65.0545V63.6545C234.078 63.6545 233.18 63.8366 232.36 64.2123L232.943 65.485ZM235.044 65.0545H239.042V63.6545H235.044V65.0545ZM239.042 65.0545C239.828 65.0545 240.52 65.2019 241.129 65.4838L241.717 64.2135C240.903 63.8365 240.008 63.6545 239.042 63.6545V65.0545ZM241.131 65.485C241.764 65.7748 242.297 66.1698 242.74 66.6709L243.789 65.7442C243.214 65.0923 242.52 64.5813 241.714 64.2123L241.131 65.485ZM242.746 66.6781C243.198 67.1758 243.549 67.7623 243.797 68.4452L245.113 67.9678C244.807 67.1235 244.364 66.3772 243.783 65.737L242.746 66.6781ZM243.797 68.4452C244.044 69.1273 244.171 69.862 244.171 70.6548H245.571C245.571 69.7105 245.42 68.8132 245.113 67.9678L243.797 68.4452ZM243.268 70.6548C243.268 70.0304 243.175 69.4337 242.984 68.8693L241.658 69.3182C241.797 69.7271 241.868 70.1711 241.868 70.6548H243.268ZM242.988 68.8815C242.806 68.3071 242.53 67.7958 242.157 67.3588L241.093 68.2681C241.333 68.5499 241.523 68.8921 241.654 69.306L242.988 68.8815ZM242.167 67.3708C241.802 66.9233 241.353 66.5716 240.829 66.3183L240.22 67.5791C240.564 67.7451 240.849 67.97 241.083 68.2561L242.167 67.3708ZM240.837 66.3226C240.293 66.0505 239.689 65.923 239.042 65.923V67.323C239.503 67.323 239.887 67.4128 240.211 67.5748L240.837 66.3226ZM239.042 65.923H235.044V67.323H239.042V65.923ZM235.044 65.923C234.396 65.923 233.791 66.0505 233.241 66.3205L233.859 67.5769C234.193 67.4127 234.583 67.323 235.044 67.323V65.923ZM233.246 66.3183C232.723 66.5708 232.273 66.9206 231.902 67.3643L232.975 68.2627C233.218 67.9727 233.509 67.7459 233.855 67.5791L233.246 66.3183ZM231.901 67.3653C231.539 67.799 231.267 68.3048 231.078 68.8724L232.406 69.3151C232.546 68.8944 232.739 68.5467 232.976 68.2616L231.901 67.3653ZM231.076 68.8785C230.895 69.4403 230.806 70.0338 230.806 70.6548H232.206C232.206 70.1677 232.275 69.7205 232.408 69.309L231.076 68.8785ZM230.806 70.6548C230.806 71.2759 230.895 71.872 231.075 72.4393L232.409 72.0148C232.275 71.5938 232.206 71.1417 232.206 70.6548H230.806ZM231.079 72.4515C231.268 73.0108 231.539 73.5129 231.896 73.95L232.981 73.0647C232.739 72.768 232.545 72.4167 232.405 72.0026L231.079 72.4515ZM231.902 73.9565C232.271 74.3982 232.718 74.75 233.237 75.0094L233.863 73.7572C233.514 73.5824 233.22 73.3502 232.975 73.0581L231.902 73.9565ZM233.25 75.0157C233.797 75.2754 234.4 75.3978 235.044 75.3978V73.9978C234.58 73.9978 234.187 73.9104 233.85 73.7509L233.25 75.0157ZM235.044 75.3978H239.042V73.9978H235.044V75.3978ZM239.042 75.3978C239.686 75.3978 240.286 75.2755 240.829 75.0137L240.22 73.7529C239.894 73.9104 239.506 73.9978 239.042 73.9978V75.3978ZM240.837 75.0094C241.358 74.7492 241.804 74.3955 242.167 73.95L241.083 73.0647C240.847 73.3529 240.559 73.5832 240.211 73.7572L240.837 75.0094ZM242.162 73.9565C242.53 73.516 242.804 73.0085 242.987 72.4423L241.655 72.0118C241.524 72.4189 241.333 72.7649 241.088 73.0581L242.162 73.9565ZM242.985 72.4484C243.175 71.8785 243.268 71.2793 243.268 70.6548H241.868C241.868 71.1384 241.797 71.5873 241.657 72.0057L242.985 72.4484ZM263.948 77V77.7H264.648V77H263.948ZM251.493 75.1582L250.972 75.6254L250.975 75.6287L251.493 75.1582ZM250.292 73.1367L249.632 73.3714L249.635 73.379L250.292 73.1367ZM250.292 68.1616L249.635 67.9193L249.634 67.9229L250.292 68.1616ZM263.948 64.3096H264.648V63.6096H263.948V64.3096ZM263.948 66.623V67.323H264.648V66.623H263.948ZM254.279 66.9375L253.983 66.3032L253.978 66.3051L254.279 66.9375ZM252.448 72.2271L251.784 72.4484L251.785 72.4515L252.448 72.2271ZM253.156 73.5073L252.619 73.9566L252.623 73.962L253.156 73.5073ZM254.279 74.3608L253.978 74.9933L253.983 74.9952L254.279 74.3608ZM261.623 74.6753V75.3753H262.323V74.6753H261.623ZM261.623 71.7554H262.323V71.0554H261.623V71.7554ZM255.031 71.7554H254.331V72.4554H255.031V71.7554ZM255.031 69.4307V68.7307H254.331V69.4307H255.031ZM263.948 69.4307H264.648V68.7307H263.948V69.4307ZM263.948 76.3H255.783V77.7H263.948V76.3ZM255.783 76.3C254.98 76.3 254.272 76.152 253.647 75.8684L253.068 77.1433C253.896 77.5186 254.804 77.7 255.783 77.7V76.3ZM253.647 75.8684C253.004 75.5769 252.462 75.1833 252.012 74.6877L250.975 75.6287C251.558 76.2711 252.259 76.776 253.068 77.1433L253.647 75.8684ZM252.015 74.6911C251.561 74.1843 251.204 73.5879 250.948 72.8944L249.635 73.379C249.948 74.2278 250.393 74.9791 250.972 75.6254L252.015 74.6911ZM250.951 72.9021C250.703 72.2044 250.576 71.4496 250.576 70.6323H249.176C249.176 71.597 249.326 72.5117 249.632 73.3714L250.951 72.9021ZM250.576 70.6323C250.576 69.8231 250.703 69.081 250.95 68.4003L249.634 67.9229C249.327 68.7695 249.176 69.6746 249.176 70.6323H250.576ZM250.948 68.4039C251.204 67.7111 251.56 67.1199 252.012 66.6219L250.975 65.6808C250.394 66.3209 249.948 67.0698 249.635 67.9193L250.948 68.4039ZM252.012 66.6219C252.462 66.1263 253.004 65.7327 253.647 65.4412L253.068 64.1662C252.259 64.5336 251.558 65.0385 250.975 65.6808L252.012 66.6219ZM253.647 65.4412C254.272 65.1576 254.98 65.0096 255.783 65.0096V63.6096C254.804 63.6096 253.896 63.791 253.068 64.1662L253.647 65.4412ZM255.783 65.0096H263.948V63.6096H255.783V65.0096ZM263.248 64.3096V66.623H264.648V64.3096H263.248ZM263.948 65.923H255.783V67.323H263.948V65.923ZM255.783 65.923C255.139 65.923 254.535 66.0454 253.983 66.3032L254.575 67.5718C254.921 67.4103 255.32 67.323 255.783 67.323V65.923ZM253.978 66.3051C253.451 66.5555 252.996 66.8995 252.623 67.3364L253.688 68.2457C253.928 67.9638 254.223 67.7388 254.579 67.5699L253.978 66.3051ZM252.623 67.3364C252.254 67.7692 251.976 68.272 251.785 68.8356L253.111 69.2845C253.25 68.8748 253.443 68.5316 253.688 68.2457L252.623 67.3364ZM251.785 68.8356C251.594 69.401 251.501 70.0016 251.501 70.6323H252.901C252.901 70.1401 252.973 69.6924 253.111 69.2845L251.785 68.8356ZM251.501 70.6323C251.501 71.2696 251.593 71.8766 251.784 72.4484L253.112 72.0057C252.973 71.5892 252.901 71.133 252.901 70.6323H251.501ZM251.785 72.4515C251.975 73.0141 252.252 73.5184 252.619 73.9565L253.692 73.0581C253.445 72.7625 253.25 72.4133 253.111 72.0026L251.785 72.4515ZM252.623 73.962C252.996 74.3989 253.451 74.7428 253.978 74.9932L254.579 73.7284C254.223 73.5596 253.928 73.3345 253.688 73.0527L252.623 73.962ZM253.983 74.9952C254.535 75.2529 255.139 75.3753 255.783 75.3753V73.9753C255.32 73.9753 254.921 73.888 254.575 73.7265L253.983 74.9952ZM255.783 75.3753H261.623V73.9753H255.783V75.3753ZM262.323 74.6753V71.7554H260.923V74.6753H262.323ZM261.623 71.0554H255.031V72.4554H261.623V71.0554ZM255.731 71.7554V69.4307H254.331V71.7554H255.731ZM255.031 70.1307H263.948V68.7307H255.031V70.1307ZM263.248 69.4307V77H264.648V69.4307H263.248ZM272.368 77V77.7H273.068V77H272.368ZM270.088 77H269.388V77.7H270.088V77ZM270.088 64.3545V63.6545H269.388V64.3545H270.088ZM272.368 64.3545H273.068V63.6545H272.368V64.3545ZM272.368 76.3H270.088V77.7H272.368V76.3ZM270.788 77V64.3545H269.388V77H270.788ZM270.088 65.0545H272.368V63.6545H270.088V65.0545ZM271.668 64.3545V77H273.068V64.3545H271.668ZM292.108 77V77.7H292.808V77H292.108ZM278.901 77H278.201V77.7H278.901V77ZM278.901 64.3096V63.6096H278.201V64.3096H278.901ZM292.108 64.3096H292.808V63.6096H292.108V64.3096ZM292.108 66.623V67.323H292.808V66.623H292.108ZM281.225 66.623V65.923H280.525V66.623H281.225ZM281.225 74.6753H280.525V75.3753H281.225V74.6753ZM292.108 74.6753H292.808V73.9753H292.108V74.6753ZM290.637 71.7554V72.4554H291.337V71.7554H290.637ZM282.315 71.7554H281.615V72.4554H282.315V71.7554ZM282.315 69.4307V68.7307H281.615V69.4307H282.315ZM290.637 69.4307H291.337V68.7307H290.637V69.4307ZM292.108 76.3H278.901V77.7H292.108V76.3ZM279.601 77V64.3096H278.201V77H279.601ZM278.901 65.0096H292.108V63.6096H278.901V65.0096ZM291.408 64.3096V66.623H292.808V64.3096H291.408ZM292.108 65.923H281.225V67.323H292.108V65.923ZM280.525 66.623V74.6753H281.925V66.623H280.525ZM281.225 75.3753H292.108V73.9753H281.225V75.3753ZM291.408 74.6753V77H292.808V74.6753H291.408ZM290.637 71.0554H282.315V72.4554H290.637V71.0554ZM283.015 71.7554V69.4307H281.615V71.7554H283.015ZM282.315 70.1307H290.637V68.7307H282.315V70.1307ZM289.937 69.4307V71.7554H291.337V69.4307H289.937ZM311.466 74.7314L312.108 75.0098L312.11 75.0059L311.466 74.7314ZM310.669 75.9106L310.174 75.4156L310.168 75.4213L310.669 75.9106ZM309.489 76.708L309.215 76.064L309.211 76.0657L309.489 76.708ZM297.293 77H296.593V77.7H297.293V77ZM297.293 74.6978V73.9978H296.593V74.6978H297.293ZM308.602 74.5967L308.857 75.2485L308.864 75.2458L308.871 75.2428L308.602 74.5967ZM309.063 74.2935L308.568 73.7985L309.063 74.2935ZM309.377 72.71L308.731 72.9792L308.735 72.9891L309.377 72.71ZM309.063 72.2495L308.554 72.7301L308.567 72.7447L308.582 72.7584L309.063 72.2495ZM308.602 71.9351L308.323 72.5771L308.333 72.5812L308.602 71.9351ZM298.382 70.7334L297.882 71.2229L297.887 71.2284L298.382 70.7334ZM297.585 69.5317L296.941 69.8062L297.585 69.5317ZM297.585 66.6455L298.227 66.9238L298.229 66.92L297.585 66.6455ZM299.562 64.6577L299.84 65.3001L299.849 65.2961L299.562 64.6577ZM310.916 64.3545H311.616V63.6545H310.916V64.3545ZM310.916 66.623V67.323H311.616V66.623H310.916ZM300.438 66.7466L300.717 67.3887L300.729 67.3829L300.438 66.7466ZM299.988 67.061L300.483 67.556L300.49 67.5489L300.497 67.5417L299.988 67.061ZM299.685 67.5215L300.327 67.8006L300.331 67.7907L299.685 67.5215ZM299.685 68.6445L299.039 68.9138L299.043 68.9236L299.685 68.6445ZM299.988 69.105L299.479 69.5856L299.486 69.5929L299.493 69.6L299.988 69.105ZM300.438 69.4082L300.158 70.0502L300.168 70.0544L300.438 69.4082ZM309.489 69.8237L309.202 70.4622L309.215 70.4677L309.489 69.8237ZM310.669 70.6323L310.163 71.1162L310.168 71.1218L310.174 71.1273L310.669 70.6323ZM311.058 73.2715C311.058 73.6977 310.978 74.0906 310.822 74.457L312.11 75.0059C312.343 74.4589 312.458 73.8785 312.458 73.2715H311.058ZM310.824 74.4531C310.663 74.8238 310.446 75.1428 310.174 75.4157L311.164 76.4056C311.564 76.0047 311.879 75.5376 312.108 75.0098L310.824 74.4531ZM310.168 75.4213C309.906 75.6888 309.591 75.9036 309.215 76.0641L309.764 77.352C310.301 77.1231 310.772 76.8063 311.169 76.4L310.168 75.4213ZM309.211 76.0657C308.854 76.2202 308.467 76.3 308.041 76.3V77.7C308.648 77.7 309.226 77.5851 309.768 77.3503L309.211 76.0657ZM308.041 76.3H297.293V77.7H308.041V76.3ZM297.993 77V74.6978H296.593V77H297.993ZM297.293 75.3978H308.041V73.9978H297.293V75.3978ZM308.041 75.3978C308.322 75.3978 308.596 75.3506 308.857 75.2485L308.347 73.9448C308.263 73.9775 308.164 73.9978 308.041 73.9978V75.3978ZM308.871 75.2428C309.129 75.1357 309.361 74.9855 309.558 74.7884L308.568 73.7985C308.51 73.856 308.435 73.9079 308.333 73.9505L308.871 75.2428ZM309.558 74.7884C309.753 74.5925 309.909 74.3661 310.019 74.1121L308.735 73.5539C308.696 73.6443 308.641 73.7249 308.568 73.7985L309.558 74.7884ZM310.019 74.1121C310.135 73.8453 310.189 73.5622 310.189 73.2715H308.789C308.789 73.385 308.769 73.4763 308.735 73.5539L310.019 74.1121ZM310.189 73.2715C310.189 72.9807 310.135 72.6977 310.019 72.4309L308.735 72.9891C308.769 73.0666 308.789 73.1579 308.789 73.2715H310.189ZM310.023 72.4407C309.912 72.1751 309.753 71.9387 309.543 71.7406L308.582 72.7584C308.642 72.8149 308.692 72.8855 308.731 72.9792L310.023 72.4407ZM309.571 71.7689C309.373 71.5592 309.137 71.3996 308.871 71.2889L308.333 72.5812C308.427 72.6203 308.497 72.6703 308.554 72.7301L309.571 71.7689ZM308.881 71.2931C308.614 71.1771 308.331 71.1228 308.041 71.1228V72.5228C308.154 72.5228 308.245 72.5433 308.323 72.577L308.881 71.2931ZM308.041 71.1228H300.999V72.5228H308.041V71.1228ZM300.999 71.1228C300.582 71.1228 300.198 71.0435 299.84 70.8885L299.283 72.1731C299.824 72.4073 300.398 72.5228 300.999 72.5228V71.1228ZM299.84 70.8885C299.469 70.7279 299.15 70.5113 298.877 70.2384L297.887 71.2284C298.288 71.6293 298.755 71.9443 299.283 72.1731L299.84 70.8885ZM298.883 70.2439C298.609 69.9635 298.391 69.6365 298.229 69.2573L296.941 69.8062C297.169 70.3404 297.482 70.8145 297.882 71.2229L298.883 70.2439ZM298.229 69.2573C298.073 68.8909 297.993 68.498 297.993 68.0718H296.593C296.593 68.6788 296.708 69.2592 296.941 69.8062L298.229 69.2573ZM297.993 68.0718C297.993 67.6635 298.072 67.283 298.227 66.9238L296.943 66.3672C296.709 66.9064 296.593 67.4768 296.593 68.0718H297.993ZM298.229 66.92C298.39 66.5421 298.606 66.221 298.877 65.9501L297.887 64.9601C297.485 65.363 297.169 65.8355 296.941 66.371L298.229 66.92ZM298.877 65.9501C299.15 65.6772 299.469 65.4606 299.84 65.3L299.283 64.0154C298.755 64.2441 298.288 64.5592 297.887 64.9601L298.877 65.9501ZM299.849 65.2961C300.205 65.1359 300.586 65.0545 300.999 65.0545V63.6545C300.394 63.6545 299.817 63.7752 299.274 64.0194L299.849 65.2961ZM300.999 65.0545H310.916V63.6545H300.999V65.0545ZM310.216 64.3545V66.623H311.616V64.3545H310.216ZM310.916 65.923H300.999V67.323H310.916V65.923ZM300.999 65.923C300.702 65.923 300.416 65.9866 300.146 66.1102L300.729 67.3829C300.819 67.3418 300.907 67.323 300.999 67.323V65.923ZM300.158 66.1046C299.901 66.2167 299.673 66.376 299.479 66.5804L300.497 67.5417C300.559 67.4766 300.63 67.4262 300.717 67.3885L300.158 66.1046ZM299.493 66.5661C299.296 66.7631 299.146 66.9951 299.039 67.2523L300.331 67.7907C300.374 67.6885 300.426 67.6135 300.483 67.556L299.493 66.5661ZM299.043 67.2424C298.929 67.5059 298.873 67.7847 298.873 68.0718H300.273C300.273 67.9695 300.292 67.8815 300.327 67.8006L299.043 67.2424ZM298.873 68.0718C298.873 68.3627 298.927 68.6455 299.039 68.9138L300.331 68.3753C300.293 68.2842 300.273 68.1851 300.273 68.0718H298.873ZM299.043 68.9236C299.15 69.1692 299.296 69.3911 299.479 69.5856L300.497 68.6243C300.426 68.5493 300.37 68.4642 300.327 68.3654L299.043 68.9236ZM299.493 69.6C299.685 69.792 299.909 69.9418 300.158 70.0502L300.717 68.7663C300.621 68.7249 300.546 68.6725 300.483 68.61L299.493 69.6ZM300.168 70.0544C300.433 70.1648 300.712 70.2205 300.999 70.2205V68.8205C300.897 68.8205 300.801 68.8014 300.707 68.762L300.168 70.0544ZM300.999 70.2205H308.041V68.8205H300.999V70.2205ZM308.041 70.2205C308.463 70.2205 308.848 70.3025 309.202 70.4621L309.777 69.1854C309.233 68.9406 308.651 68.8205 308.041 68.8205V70.2205ZM309.215 70.4677C309.588 70.6268 309.901 70.8431 310.163 71.1162L311.174 70.1485C310.777 69.7327 310.304 69.41 309.764 69.1798L309.215 70.4677ZM310.174 71.1273C310.445 71.3983 310.661 71.7194 310.822 72.0972L312.11 71.5483C311.882 71.0127 311.566 70.5402 311.164 70.1373L310.174 71.1273ZM310.822 72.0972C310.979 72.4649 311.058 72.8542 311.058 73.2715H312.458C312.458 72.6705 312.342 72.094 312.11 71.5483L310.822 72.0972Z" fill="url(#paint1_linear)"/>
</g>
<g filter="url(#filter2_i)">
<g style="mix-blend-mode:darken">
<g opacity="0.809393">
<g opacity="0.809393">
<g opacity="0.809393">
<path opacity="0.809393" d="M15.7869 73.4914L24.6482 81.3974L53.1759 49.4212L44.3146 41.5152L15.7869 73.4914Z" fill="url(#paint2_linear)"/>
</g>
</g>
</g>
<g opacity="0.809393">
<g opacity="0.809393">
<g opacity="0.809393">
<path opacity="0.809393" d="M15.7869 73.4914L24.6482 81.3974L53.1759 49.4212L44.3146 41.5152L15.7869 73.4914Z" fill="url(#paint3_linear)"/>
</g>
</g>
</g>
<g opacity="0.809393">
<g opacity="0.809393">
<g opacity="0.809393">
<path opacity="0.809393" d="M15.7869 73.4914L24.6482 81.3974L53.1759 49.4212L44.3146 41.5152L15.7869 73.4914Z" fill="url(#paint4_linear)"/>
</g>
</g>
</g>
<g opacity="0.809393">
<g opacity="0.809393">
<g opacity="0.809393">
<path opacity="0.809393" d="M15.7869 73.4914L24.6482 81.3974L53.1759 49.4212L44.3146 41.5152L15.7869 73.4914Z" fill="url(#paint5_linear)"/>
</g>
</g>
</g>
<g opacity="0.809393">
<g opacity="0.809393">
<g opacity="0.809393">
<path opacity="0.809393" d="M15.7869 73.4914L24.6482 81.3974L53.1759 49.4212L44.3146 41.5152L15.7869 73.4914Z" fill="url(#paint6_linear)"/>
</g>
</g>
</g>
<g opacity="0.809393">
<g opacity="0.809393">
<g opacity="0.809393">
<path opacity="0.809393" d="M15.7869 73.4914L24.6482 81.3974L53.1759 49.4212L44.3146 41.5152L15.7869 73.4914Z" fill="url(#paint7_linear)"/>
</g>
</g>
</g>
<g opacity="0.809393">
<g opacity="0.809393">
<g opacity="0.809393">
<path opacity="0.809393" d="M19.8571 68.8967C17.674 71.3437 17.8879 75.0971 20.3348 77.2803C22.7818 79.4635 26.5354 79.2496 28.7185 76.8025L49.3405 53.6878C51.5236 51.2408 51.3097 47.4873 48.8627 45.3042C46.4157 43.121 42.6622 43.3349 40.479 45.7819L19.8571 68.8967Z" fill="url(#paint8_linear)"/>
</g>
</g>
</g>
</g>
<g opacity="0.874887">
<g opacity="0.874887">
<g opacity="0.874887">
<g opacity="0.874887">
<path opacity="0.874887" d="M2.88968 52.2742C0.227401 55.2584 0.488231 59.8359 3.4724 62.4983L24.6766 81.4158L32.5838 72.5525L5.97648 48.8145L2.88968 52.2742Z" fill="url(#paint9_linear)"/>
</g>
</g>
</g>
<g opacity="0.874887">
<g opacity="0.874887">
<g opacity="0.874887">
<path opacity="0.874887" d="M2.88968 52.2742C0.227401 55.2584 0.488231 59.8359 3.4724 62.4983L24.6766 81.4158L32.5838 72.5525L5.97648 48.8145L2.88968 52.2742Z" fill="url(#paint10_linear)"/>
</g>
</g>
</g>
<g opacity="0.874887">
<g opacity="0.874887">
<g opacity="0.874887">
<path opacity="0.874887" d="M2.88968 52.2742C0.227401 55.2584 0.488231 59.8359 3.4724 62.4983L24.6766 81.4158L32.5838 72.5525L5.97648 48.8145L2.88968 52.2742Z" fill="url(#paint11_linear)"/>
</g>
</g>
</g>
<g opacity="0.874887">
<g opacity="0.874887">
<g opacity="0.874887">
<path opacity="0.874887" d="M2.88968 52.2742C0.227401 55.2584 0.488231 59.8359 3.4724 62.4983L24.6766 81.4158L32.5838 72.5525L5.97648 48.8145L2.88968 52.2742Z" fill="url(#paint12_linear)"/>
</g>
</g>
</g>
<g opacity="0.874887">
<g opacity="0.874887">
<g opacity="0.874887">
<path opacity="0.874887" d="M2.88968 52.2742C0.227401 55.2584 0.488231 59.8359 3.4724 62.4983L24.6766 81.4158L32.5838 72.5525L5.97648 48.8145L2.88968 52.2742Z" fill="url(#paint13_linear)"/>
</g>
</g>
</g>
<g opacity="0.874887">
<g opacity="0.874887">
<g opacity="0.874887">
<path opacity="0.874887" d="M2.88968 52.2742C0.227401 55.2584 0.488231 59.8359 3.4724 62.4983L24.6766 81.4158L32.5838 72.5525L5.97648 48.8145L2.88968 52.2742Z" fill="url(#paint14_linear)"/>
</g>
</g>
</g>
<g opacity="0.874887">
<g opacity="0.874887">
<g opacity="0.874887">
<path opacity="0.874887" d="M2.88968 52.2742C0.227401 55.2584 0.488231 59.8359 3.4724 62.4983L24.6766 81.4158L32.5838 72.5525L5.97648 48.8145L2.88968 52.2742Z" fill="url(#paint15_linear)"/>
</g>
</g>
</g>
<g opacity="0.874887">
<g opacity="0.874887">
<g opacity="0.874887">
<path opacity="0.874887" d="M2.88968 52.2742C0.227401 55.2584 0.488231 59.8359 3.4724 62.4983L24.6766 81.4158L32.5838 72.5525L5.97648 48.8145L2.88968 52.2742Z" fill="url(#paint16_linear)"/>
</g>
</g>
</g>
<g opacity="0.874887">
<g opacity="0.874887">
<g opacity="0.874887">
<path opacity="0.874887" d="M2.88968 52.2742C0.227401 55.2584 0.488231 59.8359 3.4724 62.4983L20.2449 77.4621C22.6925 79.6456 26.4467 79.4316 28.6303 76.9841C30.8138 74.5366 30.5998 70.7824 28.1523 68.5989L9.43631 51.9012C7.52549 50.1964 4.59449 50.3634 2.88968 52.2742Z" fill="url(#paint17_linear)"/>
</g>
</g>
</g>
</g>
<path d="M20.72 14.9083L1.70654 36.2199C-0.765475 38.9908 -0.523332 43.2408 2.24754 45.7128L6.09395 49.1443L32.3807 19.6799L26.6534 14.5701C25.852 13.8551 24.8527 13.5034 23.8572 13.5034C22.7011 13.5034 21.5502 13.9777 20.72 14.9083Z" fill="url(#paint18_linear)"/>
<path d="M44.3149 41.5154L44.507 41.6746C45.8522 40.0519 47.6036 39.2518 49.3445 39.2518C51.0849 39.2518 52.8372 40.0519 54.1824 41.6746L75.7238 67.6614L75.7239 67.6614C78.4255 70.9188 78.4255 76.2196 75.7239 79.477L75.7238 79.477C74.3784 81.1 72.6264 81.9003 70.8859 81.9003C69.1456 81.9003 67.3939 81.1001 66.0487 79.4773C66.0486 79.4772 66.0485 79.4771 66.0484 79.477L57.2497 68.8264L57.2493 68.8259L44.507 53.492L44.3149 41.5154ZM44.3149 41.5154L44.507 41.6747C41.8054 44.9331 41.8057 50.2332 44.5068 53.4918L44.3149 41.5154Z" fill="url(#paint19_linear)" stroke="white" stroke-width="0.5"/>
<mask id="path-21-inside-1" fill="white">
<path d="M65.7629 15.5133L44.2219 41.5C41.5011 44.7811 41.3307 49.916 43.9373 53.2804L44.0478 53.4215L44.1911 53.5948C44.2021 53.6076 44.2109 53.622 44.2219 53.6353C44.233 53.6492 44.2459 53.6609 44.2574 53.6748L56.9644 68.9856C50.1223 60.7313 59.3085 47.5727 59.3085 47.5727L59.3067 47.5732L75.8237 27.6497C78.6012 24.2981 78.6021 18.8638 75.8237 15.5133C74.4347 13.8378 72.6142 13 70.7937 13C68.9728 13 67.1523 13.8378 65.7629 15.5133Z"/>
</mask>
<path d="M65.7629 15.5133L44.2219 41.5C41.5011 44.7811 41.3307 49.916 43.9373 53.2804L44.0478 53.4215L44.1911 53.5948C44.2021 53.6076 44.2109 53.622 44.2219 53.6353C44.233 53.6492 44.2459 53.6609 44.2574 53.6748L56.9644 68.9856C50.1223 60.7313 59.3085 47.5727 59.3085 47.5727L59.3067 47.5732L75.8237 27.6497C78.6012 24.2981 78.6021 18.8638 75.8237 15.5133C74.4347 13.8378 72.6142 13 70.7937 13C68.9728 13 67.1523 13.8378 65.7629 15.5133Z" fill="url(#paint20_linear)"/>
<path d="M44.2219 41.5L44.6069 41.8191L44.6068 41.8192L44.2219 41.5ZM43.9373 53.2804L43.5437 53.5887L43.5421 53.5866L43.9373 53.2804ZM44.0478 53.4215L43.6623 53.7401L43.6542 53.7298L44.0478 53.4215ZM44.1911 53.5948L43.8128 53.922L43.8056 53.9133L44.1911 53.5948ZM44.2219 53.6353L44.6069 53.3162L44.6132 53.324L44.2219 53.6353ZM44.2574 53.6748L43.8726 53.9941L43.8725 53.9939L44.2574 53.6748ZM56.9644 68.9856L57.3493 68.6665L56.5797 69.3049L56.9644 68.9856ZM59.3085 47.5727L59.1631 47.0943L60.5455 46.6742L59.7185 47.8589L59.3085 47.5727ZM59.3067 47.5732L59.452 48.0516L57.8594 48.5356L58.9217 47.2541L59.3067 47.5732ZM75.8237 27.6497L76.2087 27.9688L76.2086 27.9689L75.8237 27.6497ZM75.8237 15.5133L75.4388 15.8325L75.4388 15.8324L75.8237 15.5133ZM66.1478 15.8324L44.6069 41.8191L43.837 41.1809L65.3779 15.1942L66.1478 15.8324ZM44.6068 41.8192C42.0298 44.9268 41.8748 49.8018 44.3326 52.9741L43.5421 53.5866C40.7866 50.0301 40.9724 44.6354 43.837 41.1809L44.6068 41.8192ZM44.3309 52.972L44.4415 53.1131L43.6542 53.7298L43.5437 53.5887L44.3309 52.972ZM44.4333 53.103L44.5765 53.2763L43.8056 53.9133L43.6624 53.74L44.4333 53.103ZM44.5692 53.2677C44.581 53.2813 44.5905 53.2934 44.5974 53.3025C44.604 53.3113 44.6097 53.3191 44.6122 53.3227C44.6158 53.3276 44.6156 53.3273 44.6153 53.327C44.6146 53.326 44.6116 53.3219 44.6069 53.3162L43.837 53.9544C43.8268 53.9421 43.8185 53.9312 43.8126 53.9234C43.8073 53.9162 43.8022 53.909 43.8008 53.9071C43.7984 53.9037 43.7991 53.9047 43.8006 53.9068C43.8024 53.9091 43.8067 53.9147 43.8129 53.9219L44.5692 53.2677ZM44.6132 53.324C44.6078 53.3172 44.6036 53.3125 44.6019 53.3106C44.6005 53.309 44.5998 53.3084 44.6028 53.3115C44.6045 53.3134 44.6106 53.3198 44.6167 53.3264C44.6233 53.3335 44.6323 53.3436 44.6423 53.3557L43.8725 53.9939C43.8767 53.9991 43.8798 54.0024 43.8804 54.0031C43.8804 54.0031 43.8805 54.0031 43.8762 53.9986C43.8731 53.9953 43.8665 53.9883 43.8591 53.9802C43.8515 53.9718 43.8416 53.9604 43.8307 53.9467L44.6132 53.324ZM44.6421 53.3555L57.3492 68.6663L56.5797 69.3049L43.8726 53.9941L44.6421 53.3555ZM56.5795 69.3047C52.9878 64.9717 53.6392 59.3945 55.0963 55.0256C55.8295 52.8274 56.7785 50.8959 57.5426 49.5155C57.9251 48.8246 58.2623 48.2699 58.5046 47.8869C58.6258 47.6953 58.7233 47.5466 58.791 47.4451C58.8249 47.3943 58.8513 47.3553 58.8694 47.3287C58.8785 47.3154 58.8856 47.3052 58.8904 47.2981C58.8929 47.2946 58.8948 47.2919 58.8961 47.2899C58.8968 47.2889 58.8974 47.2882 58.8978 47.2876C58.898 47.2873 58.8981 47.287 58.8983 47.2869C58.8984 47.2866 58.8985 47.2865 59.3085 47.5727C59.7185 47.8589 59.7185 47.8588 59.7186 47.8588C59.7185 47.8588 59.7185 47.8589 59.7184 47.859C59.7183 47.8592 59.718 47.8596 59.7175 47.8603C59.7167 47.8615 59.7153 47.8635 59.7133 47.8664C59.7094 47.872 59.7034 47.8808 59.6953 47.8926C59.6791 47.9163 59.6548 47.9522 59.623 47.9999C59.5595 48.0951 59.4663 48.2372 59.3497 48.4215C59.1164 48.7904 58.7893 49.3282 58.4175 49.9999C57.6731 51.3447 56.7531 53.2187 56.045 55.342C54.6195 59.6159 54.0989 64.7452 57.3493 68.6665L56.5795 69.3047ZM59.4539 48.0511L59.452 48.0516L59.1613 47.0948L59.1631 47.0943L59.4539 48.0511ZM58.9217 47.2541L75.4388 27.3306L76.2086 27.9689L59.6916 47.8924L58.9217 47.2541ZM75.4387 27.3307C78.0629 24.1641 78.0636 18.9978 75.4388 15.8325L76.2086 15.1941C79.1405 18.7298 79.1394 24.4322 76.2087 27.9688L75.4387 27.3307ZM75.4388 15.8324C74.1373 14.2625 72.4541 13.5 70.7937 13.5V12.5C72.7744 12.5 74.7321 13.4131 76.2086 15.1942L75.4388 15.8324ZM70.7937 13.5C69.133 13.5 67.4497 14.2625 66.1478 15.8325L65.378 15.1941C66.8549 13.4131 68.8126 12.5 70.7937 12.5V13.5Z" fill="#FFFBFB" mask="url(#path-21-inside-1)"/>
</g>
<defs>
<filter id="filter0_d" x="90.1094" y="11.3906" width="224.336" height="43.6094" filterUnits="userSpaceOnUse" color-interpolation-filters="sRGB">
<feFlood flood-opacity="0" result="BackgroundImageFix"/>
<feColorMatrix in="SourceAlpha" type="matrix" values="0 0 0 0 0 0 0 0 0 0 0 0 0 0 0 0 0 0 127 0"/>
<feOffset dx="1" dy="4"/>
<feGaussianBlur stdDeviation="2.5"/>
<feColorMatrix type="matrix" values="0 0 0 0 0 0 0 0 0 0 0 0 0 0 0 0 0 0 0.25 0"/>
<feBlend mode="normal" in2="BackgroundImageFix" result="effect1_dropShadow"/>
<feBlend mode="normal" in="SourceGraphic" in2="effect1_dropShadow" result="shape"/>
</filter>
<filter id="filter1_d" x="89.5583" y="54" width="231.442" height="36" filterUnits="userSpaceOnUse" color-interpolation-filters="sRGB">
<feFlood flood-opacity="0" result="BackgroundImageFix"/>
<feColorMatrix in="SourceAlpha" type="matrix" values="0 0 0 0 0 0 0 0 0 0 0 0 0 0 0 0 0 0 127 0"/>
<feOffset dx="1" dy="4"/>
<feGaussianBlur stdDeviation="2.5"/>
<feColorMatrix type="matrix" values="0 0 0 0 0 0 0 0 0 0 0 0 0 0 0 0 0 0 0.25 0"/>
<feBlend mode="normal" in2="BackgroundImageFix" result="effect1_dropShadow"/>
<feBlend mode="normal" in="SourceGraphic" in2="effect1_dropShadow" result="shape"/>
</filter>
<filter id="filter2_i" x="0" y="13.0001" width="83.0001" height="74.1502" filterUnits="userSpaceOnUse" color-interpolation-filters="sRGB">
<feFlood flood-opacity="0" result="BackgroundImageFix"/>
<feBlend mode="normal" in="SourceGraphic" in2="BackgroundImageFix" result="shape"/>
<feColorMatrix in="SourceAlpha" type="matrix" values="0 0 0 0 0 0 0 0 0 0 0 0 0 0 0 0 0 0 127 0" result="hardAlpha"/>
<feOffset dx="5" dy="5"/>
<feGaussianBlur stdDeviation="4.5"/>
<feComposite in2="hardAlpha" operator="arithmetic" k2="-1" k3="1"/>
<feColorMatrix type="matrix" values="0 0 0 0 0 0 0 0 0 0 0 0 0 0 0 0 0 0 0.25 0"/>
<feBlend mode="normal" in2="shape" result="effect1_innerShadow"/>
</filter>
<radialGradient id="paint0_radial" cx="0" cy="0" r="1" gradientUnits="userSpaceOnUse" gradientTransform="translate(203.5 24) rotate(90) scale(24 111.5)">
<stop stop-color="#942AA5"/>
<stop offset="1" stop-color="#306DF8"/>
</radialGradient>
<linearGradient id="paint1_linear" x1="204.5" y1="55" x2="204.5" y2="81" gradientUnits="userSpaceOnUse">
<stop stop-color="#942AA5"/>
<stop offset="1" stop-color="#01BAFF"/>
</linearGradient>
<linearGradient id="paint2_linear" x1="34.4814" y1="81.3974" x2="34.4814" y2="41.5152" gradientUnits="userSpaceOnUse">
<stop stop-color="#306DF8"/>
<stop offset="1" stop-color="#942AA5"/>
</linearGradient>
<linearGradient id="paint3_linear" x1="34.4814" y1="81.3974" x2="34.4814" y2="41.5152" gradientUnits="userSpaceOnUse">
<stop stop-color="#306DF8"/>
<stop offset="1" stop-color="#942AA5"/>
</linearGradient>
<linearGradient id="paint4_linear" x1="34.4814" y1="81.3974" x2="34.4814" y2="41.5152" gradientUnits="userSpaceOnUse">
<stop stop-color="#306DF8"/>
<stop offset="1" stop-color="#942AA5"/>
</linearGradient>
<linearGradient id="paint5_linear" x1="34.4814" y1="81.3974" x2="34.4814" y2="41.5152" gradientUnits="userSpaceOnUse">
<stop stop-color="#306DF8"/>
<stop offset="1" stop-color="#942AA5"/>
</linearGradient>
<linearGradient id="paint6_linear" x1="34.4814" y1="81.3974" x2="34.4814" y2="41.5152" gradientUnits="userSpaceOnUse">
<stop stop-color="#306DF8"/>
<stop offset="1" stop-color="#942AA5"/>
</linearGradient>
<linearGradient id="paint7_linear" x1="34.4814" y1="81.3974" x2="34.4814" y2="41.5152" gradientUnits="userSpaceOnUse">
<stop stop-color="#306DF8"/>
<stop offset="1" stop-color="#942AA5"/>
</linearGradient>
<linearGradient id="paint8_linear" x1="34.5988" y1="81.2333" x2="34.5988" y2="41.3511" gradientUnits="userSpaceOnUse">
<stop stop-color="#306DF8"/>
<stop offset="1" stop-color="#942AA5"/>
</linearGradient>
<linearGradient id="paint9_linear" x1="16.8178" y1="81.4158" x2="16.8178" y2="48.8145" gradientUnits="userSpaceOnUse">
<stop stop-color="#306DF8"/>
<stop offset="1" stop-color="#942AA5"/>
</linearGradient>
<linearGradient id="paint10_linear" x1="16.8178" y1="81.4158" x2="16.8178" y2="48.8145" gradientUnits="userSpaceOnUse">
<stop stop-color="#306DF8"/>
<stop offset="1" stop-color="#942AA5"/>
</linearGradient>
<linearGradient id="paint11_linear" x1="16.8178" y1="81.4158" x2="16.8178" y2="48.8145" gradientUnits="userSpaceOnUse">
<stop stop-color="#306DF8"/>
<stop offset="1" stop-color="#942AA5"/>
</linearGradient>
<linearGradient id="paint12_linear" x1="16.8178" y1="81.4158" x2="16.8178" y2="48.8145" gradientUnits="userSpaceOnUse">
<stop stop-color="#306DF8"/>
<stop offset="1" stop-color="#942AA5"/>
</linearGradient>
<linearGradient id="paint13_linear" x1="16.8178" y1="81.4158" x2="16.8178" y2="48.8145" gradientUnits="userSpaceOnUse">
<stop stop-color="#306DF8"/>
<stop offset="1" stop-color="#942AA5"/>
</linearGradient>
<linearGradient id="paint14_linear" x1="16.8178" y1="81.4158" x2="16.8178" y2="48.8145" gradientUnits="userSpaceOnUse">
<stop stop-color="#306DF8"/>
<stop offset="1" stop-color="#942AA5"/>
</linearGradient>
<linearGradient id="paint15_linear" x1="16.8178" y1="81.4158" x2="16.8178" y2="48.8145" gradientUnits="userSpaceOnUse">
<stop stop-color="#306DF8"/>
<stop offset="1" stop-color="#942AA5"/>
</linearGradient>
<linearGradient id="paint16_linear" x1="16.8178" y1="81.4158" x2="16.8178" y2="48.8145" gradientUnits="userSpaceOnUse">
<stop stop-color="#306DF8"/>
<stop offset="1" stop-color="#942AA5"/>
</linearGradient>
<linearGradient id="paint17_linear" x1="16.8178" y1="81.4158" x2="16.8178" y2="48.8145" gradientUnits="userSpaceOnUse">
<stop stop-color="#306DF8"/>
<stop offset="1" stop-color="#942AA5"/>
</linearGradient>
<linearGradient id="paint18_linear" x1="16.1904" y1="49.1443" x2="16.1904" y2="13.5034" gradientUnits="userSpaceOnUse">
<stop stop-color="#306DF8"/>
<stop offset="1" stop-color="#942AA5"/>
</linearGradient>
<linearGradient id="paint19_linear" x1="60.1155" y1="82.1503" x2="60.1155" y2="39.0018" gradientUnits="userSpaceOnUse">
<stop stop-color="#306DF8"/>
<stop offset="1" stop-color="#942AA5"/>
</linearGradient>
<linearGradient id="paint20_linear" x1="59.9927" y1="68.9856" x2="59.9927" y2="13" gradientUnits="userSpaceOnUse">
<stop stop-color="#306DF8"/>
<stop offset="1" stop-color="#942AA5"/>
</linearGradient>
</defs>
</svg>
