<svg id="Capa_1" enable-background="new 0 0 512 512" height="512" viewBox="0 0 512 512" width="512" xmlns="http://www.w3.org/2000/svg"><g><path d="m352 481.83-96 15.17-96-15.17c18.7 0 34.89-12.98 38.96-31.23l14.42-64.77h85.24l14.42 64.77c4.07 18.25 20.26 31.23 38.96 31.23z" fill="#d6d6ea"/><path d="m352 481.83-96 15.17v-111.17h42.62l14.42 64.77c4.07 18.25 20.26 31.23 38.96 31.23z" fill="#a9aaca"/><path d="m135.5 482h241v30h-241z" fill="#f1f1f1"/><path d="m256 482h120.5v30h-120.5z" fill="#d6d6ea"/><path d="m512 350.12v64h-512v-64l256-18.46z" fill="#f1f1f1"/><path d="m512 350.12v64h-256v-82.46z" fill="#d6d6ea"/><path d="m0 62.12v288h512v-288z" fill="#4e588b"/><path d="m256 62.12h256v288h-256z" fill="#293e65"/><path d="m30 92.12h452v228h-452z" fill="#f1f1f1"/><path d="m256 92.12h226v228h-226z" fill="#d6d6ea"/><path d="m367.44 37.15v144.33c0 61.55-111.44 115.69-111.44 115.69s-111.44-54.14-111.44-115.69v-144.33c37.15 0 59.74-10.24 74.29-37.15h74.3c13.62 27.13 37.14 37.15 74.29 37.15z" fill="#bde953"/><path d="m367.44 37.15v144.33c0 61.55-111.44 115.69-111.44 115.69v-297.17h37.15c13.62 27.13 37.14 37.15 74.29 37.15z" fill="#00cd72"/><path d="m321.17 115.98-76.76 76.76-53.58-53.57 21.22-21.22 32.36 32.36 55.54-55.54z" fill="#f1f1f1"/><path d="m321.17 115.98-65.17 65.17v-42.43l43.95-43.95z" fill="#d6d6ea"/></g></svg>